<?xml version="1.0" encoding="iso-8859-1"?>
<!-- Uploaded to: SVG Repo, www.svgrepo.com, Generator: SVG Repo Mixer Tools -->
<svg height="800px" width="800px" version="1.1" id="Layer_1" xmlns="http://www.w3.org/2000/svg" xmlns:xlink="http://www.w3.org/1999/xlink" 
	 viewBox="0 0 512 512" xml:space="preserve">
<path style="fill:#50412E;" d="M291.327,288.723c56.179-12.131,94.197-38.238,94.197-69.188c0-33.111-43.51-60.676-106.217-71.519
	c39.725-10.387,66.216-30.954,66.216-55.147c0.001-34.987-55.387-62.392-126.095-62.392S93.334,57.882,93.334,92.868
	c0,24.194,26.491,44.76,66.216,55.147c-62.707,10.843-106.217,38.409-106.217,71.519c0,30.952,38.018,57.058,94.197,69.188
	C60.83,301.043,0,335.249,0,376.571c0,52.017,96.384,92.762,219.429,92.762s219.429-40.745,219.429-92.762
	C438.857,335.249,378.027,301.043,291.327,288.723z"/>
<path d="M219.429,469.333c123.045,0,219.429-40.745,219.429-92.762c0-41.322-60.83-75.529-147.53-87.848
	c56.179-12.131,94.197-38.238,94.197-69.188c0-33.111-43.51-60.676-106.217-71.519c39.725-10.387,66.216-30.954,66.216-55.147
	c0.001-34.987-55.387-62.392-126.095-62.392"/>
<path style="fill:#FFE98F;" d="M464.544,312.163c-12.516,0-31.465,10.184-47.643,20.649c10.467-16.178,20.649-35.127,20.649-47.643
	c0.001-26.167-21.287-47.455-47.455-47.455c-26.168,0-47.456,21.288-47.456,47.456c0,12.516,10.184,31.465,20.649,47.643
	c-16.178-10.467-35.127-20.649-47.643-20.649c-26.167-0.001-47.455,21.288-47.455,47.455c0,26.167,21.288,47.456,47.456,47.456
	c12.516,0,31.465-10.184,47.643-20.649c-10.467,16.179-20.649,35.127-20.649,47.643c-0.001,26.167,21.287,47.455,47.455,47.455
	c26.168,0,47.456-21.288,47.456-47.456c0-12.516-10.184-31.464-20.649-47.643c16.178,10.467,35.127,20.649,47.643,20.649
	C490.712,407.075,512,385.786,512,359.619C512,333.452,490.712,312.163,464.544,312.163z"/>
<path style="fill:#FFC170;" d="M464.544,312.163c-12.516,0-31.465,10.184-47.643,20.649c10.467-16.178,20.649-35.127,20.649-47.643
	c0.001-26.167-21.287-47.455-47.455-47.455c0,68.267,0,199.924,0,243.81c26.168,0,47.456-21.288,47.456-47.456
	c0-12.516-10.184-31.464-20.649-47.643c16.178,10.467,35.127,20.649,47.643,20.649C490.712,407.075,512,385.786,512,359.619
	C512,333.452,490.712,312.163,464.544,312.163z"/>
<circle style="fill:#A2001D;" cx="390.095" cy="359.619" r="24.381"/>
<path style="fill:#6C0014;" d="M390.095,335.238c13.464,0,24.381,10.915,24.381,24.381c0,13.466-10.917,24.381-24.381,24.381"/>
</svg>