<?xml version="1.0" encoding="iso-8859-1"?>
<!-- Uploaded to: SVG Repo, www.svgrepo.com, Generator: SVG Repo Mixer Tools -->
<svg height="800px" width="800px" version="1.1" id="Layer_1" xmlns="http://www.w3.org/2000/svg" xmlns:xlink="http://www.w3.org/1999/xlink" 
	 viewBox="0 0 511.992 511.992" xml:space="preserve">
<path style="fill:#DBADA2;" d="M416.623,405.915l-1.312-0.406c-22.328-6.047-38.688-11.812-48.547-15.624
	c-34.921-13.422-44.015-23.109-46.327-27.688c-0.094-0.172-0.156-0.344-0.219-0.516l-0.328-42.703l-127.803,1.719l-0.281,40.984
	c-0.078,0.172-0.141,0.344-0.227,0.516c-2.32,4.578-11.406,14.266-46.327,27.719c-9.844,3.781-26.234,9.546-48.351,15.546
	l-1.516,0.453c-20.125,6.719-33.672,25.593-33.672,46.874v59.203h388.564v-59.203C450.278,431.508,436.778,412.634,416.623,405.915z
	"/>
<path style="fill:#CCD1D9;" d="M368.904,275.417l-17.031-12.827c22.906-30.422-47.904-150.389-48.248-150.623l49.998-20.828
	c1.656,1.203,41.438,42.343,48.781,92.139C407.435,217.449,395.373,240.262,368.904,275.417z"/>
<path style="fill:#EAC6BB;" d="M372.154,240.98c0,75.467-71.951,148.029-116.154,148.029c-44.202,0-116.146-72.562-116.146-148.029
	c0-75.468,51.999-125.248,116.146-125.248C320.155,115.732,372.154,165.513,372.154,240.98z"/>
<path style="fill:#E6E9ED;" d="M371.935,47.436c-17.219-21.843-39.03-37.937-59.89-44.155C304.749,1.109,296.405,0,287.28,0
	c-33.125,0-74.983,14.688-109.241,38.327c-39.999,27.594-65.187,63.515-70.937,101.155c-8.124,53.233,3.695,88.748,15.031,109.17
	c12.703,22.859,25.977,37.905,25.977,37.905s13.507-45.437,37.194-76.795c12.938-17.125,32.141-31.625,57.077-43.062
	c31.648-14.531,72.585-24.156,121.646-28.608c18.688-1.703,30.406-12.438,32.094-29.453
	C397.81,91.717,388.779,68.827,371.935,47.436z"/>
<path style="fill:#D770AD;" d="M416.623,405.915l-1.312-0.406c-3.172-0.859-6.219-1.703-9.141-2.547l-91.499,84.64l-57.444-29.344
	l1.258-3.297c-27.406-10.406-49.288-29.484-65.046-56.718c-5.711-9.858-9.547-19.077-12.016-26.062
	c-6.867,4.781-18.039,10.75-36.171,17.734c-9.844,3.781-26.234,9.546-48.351,15.546l-1.516,0.453
	c-20.125,6.719-33.672,25.593-33.672,46.874v59.203h388.564v-59.203C450.278,431.508,436.778,412.634,416.623,405.915z"/>
<path style="fill:#EC87C0;" d="M416.623,405.915l-1.312-0.406c-22.328-6.047-38.688-11.812-48.547-15.624
	c-16.609-6.375-27.359-11.922-34.327-16.469c-9.938,13.844-25.999,34.562-47.124,55.998c-21.562,21.891-44.008,40.156-66.726,54.266
	c-20.93,13.016-42.125,22.484-63.241,28.312h294.933v-59.203C450.278,431.508,436.778,412.634,416.623,405.915z"/>
</svg>