<?xml version="1.0" encoding="iso-8859-1"?>
<!-- Uploaded to: SVG Repo, www.svgrepo.com, Generator: SVG Repo Mixer Tools -->
<!DOCTYPE svg PUBLIC "-//W3C//DTD SVG 1.1//EN" "http://www.w3.org/Graphics/SVG/1.1/DTD/svg11.dtd">
<svg fill="#000000" version="1.1" id="Capa_1" xmlns="http://www.w3.org/2000/svg" xmlns:xlink="http://www.w3.org/1999/xlink" 
	 width="800px" height="800px" viewBox="0 0 175.109 175.109"
	 xml:space="preserve">
<g>
	<g>
		<path d="M175.06,106.6c0.646-8.066-5.001-17.96-22.813-19.995c4.664-7.275,6.545-14.213,5.445-20.153
			c-0.781-4.258-3.031-7.77-6.51-10.159c-2.615-1.797-5.669-2.75-8.823-2.75c-1.247,0-2.495,0.194-3.742,0.481l0.3-1.037V33.142
			c0-6.625-31.092-11.993-69.458-11.993C31.097,21.149,0,26.517,0,33.142v19.846C0,59.606,31.097,64.98,69.458,64.98
			c5.983,0,11.773-0.148,17.315-0.394c-0.237,1.667-0.298,3.411-0.142,5.255c-6.51,0.257-12.489,0.343-17.167,0.343
			c-17.313,0-52.234-1.027-67.352-8.601L1.776,62.81v72.89c0,6.949,30.303,12.588,67.682,12.588c6.342,0,12.452-0.177,18.271-0.484
			l0.188,0.176c2.611,1.803,5.661,2.752,8.816,2.752c4.246,0,8.541-1.695,12.618-4.886c3.995-0.542,7.639-1.166,10.9-1.85
			c6.161,8.405,12.729,9.965,16.549,9.965c2.287,0,4.529-0.509,6.62-1.505c3.819-1.806,6.611-4.914,8.064-8.991
			c2.036-5.696,1.283-12.854-2.166-20.782c0.804,0.033,1.587,0.056,2.342,0.056C167.958,122.737,174.425,114.403,175.06,106.6z
			 M69.458,42.525c-41.939,0-65.492-6.101-66.87-9.255c1.378-3.412,24.913-9.513,66.87-9.513c41.956,0,65.493,6.101,66.871,9.261
			C134.947,36.424,111.401,42.525,69.458,42.525z M128.849,59.179c-2.217,1.866-4.366,4.146-6.396,6.882
			c-0.929-1.802-1.881-3.374-2.844-4.786C123.12,60.629,126.197,59.929,128.849,59.179z M69.458,130.053
			c-33.513,0-54.155-4.389-59.877-7.277V82.896c17.533,4.568,42.608,5.455,58.526,5.5c-2.515,2.777-3.819,6.061-4.079,9.268
			c-0.338,4.218,0.966,8.191,3.779,11.491c3.909,4.603,10.478,7.523,19.039,8.498c-2.717,4.245-4.464,8.324-5.255,12.202
			C77.762,129.987,73.711,130.053,69.458,130.053z M147.941,116.975c-4.192-0.329-8.449-1.839-12.345-3.775
			c3.185,2.977,6.122,6.424,7.914,10.221c5.93,12.488,3.778,21.007-2.479,23.968c-6.246,2.967-14.219-0.733-20.134-13.229
			c-1.806-3.788-2.638-8.236-2.922-12.587c-0.973,4.257-2.472,8.503-4.881,11.972c-7.842,11.365-16.308,13.746-21.992,9.817
			c-5.69-3.917-6.481-12.651,1.374-24.055c2.386-3.437,5.822-6.392,9.455-8.82c-4.17,1.302-8.624,2.101-12.806,1.751
			c-13.786-1.096-20.058-7.224-19.5-14.129c0.555-6.896,7.729-11.93,21.515-10.835c4.192,0.339,8.46,1.86,12.369,3.786
			c-3.185-2.976-6.126-6.424-7.915-10.224c-5.948-12.487-3.781-20.992,2.479-23.953c6.243-2.969,14.21,0.729,20.133,13.217
			c1.804,3.8,2.625,8.243,2.909,12.597c0.977-4.252,2.495-8.509,4.894-11.967c7.846-11.387,16.295-13.75,21.996-9.822
			c5.712,3.92,6.468,12.662-1.373,24.046c-2.397,3.48-5.84,6.392-9.45,8.81c4.158-1.27,8.612-2.084,12.784-1.751
			c13.788,1.116,20.069,7.256,19.513,14.146C168.92,113.057,161.743,118.102,147.941,116.975z"/>
		<path d="M119.548,92.121c5.53,0,10.012,4.487,10.012,10.013c0,5.527-4.481,10.015-10.012,10.015
			c-5.534,0-10.016-4.487-10.016-10.015C109.533,96.608,114.014,92.121,119.548,92.121z"/>
	</g>
</g>
</svg>